<svg xmlns="http://www.w3.org/2000/svg" viewBox="0 0 148 148" fill="none">
  <circle cx="74" cy="74" r="74" fill="black"/>
  <path d="M74 124c27.614 0 50-22.386 50-50s-22.386-50-50-50-50 22.386-50 50 22.386 50 50 50z" fill="white"/>
  <path d="M74 120c25.405 0 46-20.595 46-46s-20.595-46-46-46-46 20.595-46 46 20.595 46 46 46z" fill="black"/>
  <path d="M74 116c23.196 0 42-18.804 42-42s-18.804-42-42-42-42 18.804-42 42 18.804 42 42 42z" fill="white"/>
  <path d="M74 112c21.196 0 38-16.804 38-38s-16.804-38-38-38-38 16.804-38 38 16.804 38 38 38z" fill="black"/>
  <path d="M74 108c19.196 0 34-14.804 34-34s-14.804-34-34-34-34 14.804-34 34 14.804 34 34 34z" fill="white"/>
  <path d="M74 104c17.196 0 30-12.804 30-30s-12.804-30-30-30-30 12.804-30 30 12.804 30 30 30z" fill="black"/>
  <path d="M74 100c15.196 0 26-10.804 26-26s-10.804-26-26-26-26 10.804-26 26 10.804 26 26 26z" fill="white"/>
  <path d="M74 96c13.196 0 22-8.804 22-22s-8.804-22-22-22-22 8.804-22 22 8.804 22 22 22z" fill="black"/>
  <path d="M74 92c11.196 0 18-6.804 18-18s-6.804-18-18-18-18 6.804-18 18 6.804 18 18 18z" fill="white"/>
  <path d="M74 88c9.196 0 14-4.804 14-14s-4.804-14-14-14-14 4.804-14 14 4.804 14 14 14z" fill="black"/>
</svg>
